<mxfile host="app.diagrams.net" modified="2023-08-06T14:54:56.686Z" agent="Mozilla/5.0 (Macintosh; Intel Mac OS X 10_15_7) AppleWebKit/537.36 (KHTML, like Gecko) Chrome/115.0.0.0 Safari/537.36" etag="llyJ0wG0OJN8MeJTuWFX" version="21.6.6" type="device">
  <diagram name="Page-1" id="2YBvvXClWsGukQMizWep">
    <mxGraphModel dx="3282" dy="1278" grid="1" gridSize="10" guides="1" tooltips="1" connect="1" arrows="1" fold="1" page="1" pageScale="1" pageWidth="1169" pageHeight="827" math="0" shadow="0">
      <root>
        <mxCell id="0" />
        <mxCell id="1" parent="0" />
        <mxCell id="aM9ryv3xv72pqoxQDRHE-1" value="UI / Browser" style="shape=umlLifeline;perimeter=lifelinePerimeter;whiteSpace=wrap;html=1;container=0;dropTarget=0;collapsible=0;recursiveResize=0;outlineConnect=0;portConstraint=eastwest;newEdgeStyle={&quot;edgeStyle&quot;:&quot;elbowEdgeStyle&quot;,&quot;elbow&quot;:&quot;vertical&quot;,&quot;curved&quot;:0,&quot;rounded&quot;:0};" parent="1" vertex="1">
          <mxGeometry x="331" y="150" width="100" height="470" as="geometry" />
        </mxCell>
        <mxCell id="aM9ryv3xv72pqoxQDRHE-2" value="" style="html=1;points=[];perimeter=orthogonalPerimeter;outlineConnect=0;targetShapes=umlLifeline;portConstraint=eastwest;newEdgeStyle={&quot;edgeStyle&quot;:&quot;elbowEdgeStyle&quot;,&quot;elbow&quot;:&quot;vertical&quot;,&quot;curved&quot;:0,&quot;rounded&quot;:0};" parent="aM9ryv3xv72pqoxQDRHE-1" vertex="1">
          <mxGeometry x="45" y="70" width="10" height="360" as="geometry" />
        </mxCell>
        <mxCell id="kfZU4WPmUWNrsmBG602O-3" value="" style="edgeStyle=elbowEdgeStyle;rounded=0;orthogonalLoop=1;jettySize=auto;html=1;elbow=vertical;curved=0;" edge="1" parent="1" target="kfZU4WPmUWNrsmBG602O-2">
          <mxGeometry relative="1" as="geometry">
            <mxPoint x="651" y="335.9999999999999" as="sourcePoint" />
            <mxPoint x="886" y="335.9999999999999" as="targetPoint" />
            <Array as="points">
              <mxPoint x="771" y="336" />
            </Array>
          </mxGeometry>
        </mxCell>
        <mxCell id="kfZU4WPmUWNrsmBG602O-7" value="&lt;font style=&quot;font-size: 8px;&quot;&gt;4. BEGIN db transaction&lt;/font&gt;" style="edgeLabel;html=1;align=center;verticalAlign=middle;resizable=0;points=[];" vertex="1" connectable="0" parent="kfZU4WPmUWNrsmBG602O-3">
          <mxGeometry x="-0.0815" relative="1" as="geometry">
            <mxPoint x="13" y="-8" as="offset" />
          </mxGeometry>
        </mxCell>
        <mxCell id="aM9ryv3xv72pqoxQDRHE-5" value="Application" style="shape=umlLifeline;perimeter=lifelinePerimeter;whiteSpace=wrap;html=1;container=0;dropTarget=0;collapsible=0;recursiveResize=0;outlineConnect=0;portConstraint=eastwest;newEdgeStyle={&quot;edgeStyle&quot;:&quot;elbowEdgeStyle&quot;,&quot;elbow&quot;:&quot;vertical&quot;,&quot;curved&quot;:0,&quot;rounded&quot;:0};" parent="1" vertex="1">
          <mxGeometry x="601" y="150" width="100" height="470" as="geometry" />
        </mxCell>
        <mxCell id="aM9ryv3xv72pqoxQDRHE-6" value="" style="html=1;points=[];perimeter=orthogonalPerimeter;outlineConnect=0;targetShapes=umlLifeline;portConstraint=eastwest;newEdgeStyle={&quot;edgeStyle&quot;:&quot;elbowEdgeStyle&quot;,&quot;elbow&quot;:&quot;vertical&quot;,&quot;curved&quot;:0,&quot;rounded&quot;:0};" parent="aM9ryv3xv72pqoxQDRHE-5" vertex="1">
          <mxGeometry x="45" y="80" width="10" height="330" as="geometry" />
        </mxCell>
        <mxCell id="aM9ryv3xv72pqoxQDRHE-7" value="&lt;font style=&quot;font-size: 8px;&quot;&gt;2. POST /transactions&lt;/font&gt;" style="html=1;verticalAlign=bottom;endArrow=block;edgeStyle=elbowEdgeStyle;elbow=vertical;curved=0;rounded=0;" parent="1" source="aM9ryv3xv72pqoxQDRHE-2" target="aM9ryv3xv72pqoxQDRHE-6" edge="1">
          <mxGeometry relative="1" as="geometry">
            <mxPoint x="401" y="240" as="sourcePoint" />
            <Array as="points">
              <mxPoint x="481" y="240" />
              <mxPoint x="386" y="230" />
            </Array>
          </mxGeometry>
        </mxCell>
        <mxCell id="aM9ryv3xv72pqoxQDRHE-8" value="&lt;font style=&quot;font-size: 8px;&quot;&gt;9. return HTTP_STATUS 201&lt;/font&gt;" style="html=1;verticalAlign=bottom;endArrow=open;dashed=1;endSize=8;edgeStyle=elbowEdgeStyle;elbow=vertical;curved=0;rounded=0;" parent="1" source="aM9ryv3xv72pqoxQDRHE-6" target="aM9ryv3xv72pqoxQDRHE-2" edge="1">
          <mxGeometry relative="1" as="geometry">
            <mxPoint x="401" y="315" as="targetPoint" />
            <Array as="points">
              <mxPoint x="581" y="480" />
              <mxPoint x="551" y="470" />
              <mxPoint x="461" y="430" />
              <mxPoint x="396" y="390" />
            </Array>
          </mxGeometry>
        </mxCell>
        <mxCell id="kfZU4WPmUWNrsmBG602O-1" value="Database" style="shape=umlLifeline;perimeter=lifelinePerimeter;whiteSpace=wrap;html=1;container=0;dropTarget=0;collapsible=0;recursiveResize=0;outlineConnect=0;portConstraint=eastwest;newEdgeStyle={&quot;edgeStyle&quot;:&quot;elbowEdgeStyle&quot;,&quot;elbow&quot;:&quot;vertical&quot;,&quot;curved&quot;:0,&quot;rounded&quot;:0};" vertex="1" parent="1">
          <mxGeometry x="861" y="150" width="100" height="470" as="geometry" />
        </mxCell>
        <mxCell id="kfZU4WPmUWNrsmBG602O-2" value="" style="html=1;points=[];perimeter=orthogonalPerimeter;outlineConnect=0;targetShapes=umlLifeline;portConstraint=eastwest;newEdgeStyle={&quot;edgeStyle&quot;:&quot;elbowEdgeStyle&quot;,&quot;elbow&quot;:&quot;vertical&quot;,&quot;curved&quot;:0,&quot;rounded&quot;:0};" vertex="1" parent="kfZU4WPmUWNrsmBG602O-1">
          <mxGeometry x="45" y="170" width="10" height="220" as="geometry" />
        </mxCell>
        <mxCell id="kfZU4WPmUWNrsmBG602O-4" value="Customer" style="shape=umlActor;verticalLabelPosition=bottom;verticalAlign=top;html=1;outlineConnect=0;" vertex="1" parent="1">
          <mxGeometry x="208" y="190" width="30" height="60" as="geometry" />
        </mxCell>
        <mxCell id="aM9ryv3xv72pqoxQDRHE-3" value="&lt;font style=&quot;font-size: 8px;&quot;&gt;1. click &#39;Pay&#39; button&lt;/font&gt;" style="html=1;verticalAlign=bottom;startArrow=oval;endArrow=block;startSize=8;edgeStyle=elbowEdgeStyle;elbow=vertical;curved=0;rounded=0;exitX=0.5;exitY=0.5;exitDx=0;exitDy=0;exitPerimeter=0;" parent="1" target="aM9ryv3xv72pqoxQDRHE-2" edge="1" source="kfZU4WPmUWNrsmBG602O-4">
          <mxGeometry x="0.0037" relative="1" as="geometry">
            <mxPoint x="251" y="220" as="sourcePoint" />
            <mxPoint as="offset" />
          </mxGeometry>
        </mxCell>
        <mxCell id="kfZU4WPmUWNrsmBG602O-8" value="" style="edgeStyle=elbowEdgeStyle;rounded=0;orthogonalLoop=1;jettySize=auto;html=1;elbow=vertical;curved=0;" edge="1" parent="1" source="aM9ryv3xv72pqoxQDRHE-6" target="kfZU4WPmUWNrsmBG602O-2">
          <mxGeometry relative="1" as="geometry">
            <mxPoint x="701" y="370" as="sourcePoint" />
            <mxPoint x="881" y="370" as="targetPoint" />
            <Array as="points">
              <mxPoint x="671" y="370" />
            </Array>
          </mxGeometry>
        </mxCell>
        <mxCell id="kfZU4WPmUWNrsmBG602O-9" value="&lt;font style=&quot;font-size: 8px;&quot;&gt;5. INSERT transactions&lt;/font&gt;" style="edgeLabel;html=1;align=center;verticalAlign=middle;resizable=0;points=[];" vertex="1" connectable="0" parent="kfZU4WPmUWNrsmBG602O-8">
          <mxGeometry x="-0.0815" relative="1" as="geometry">
            <mxPoint x="11" y="-8" as="offset" />
          </mxGeometry>
        </mxCell>
        <mxCell id="kfZU4WPmUWNrsmBG602O-10" value="" style="edgeStyle=elbowEdgeStyle;rounded=0;orthogonalLoop=1;jettySize=auto;html=1;elbow=vertical;curved=0;" edge="1" parent="1" source="aM9ryv3xv72pqoxQDRHE-6" target="kfZU4WPmUWNrsmBG602O-2">
          <mxGeometry relative="1" as="geometry">
            <mxPoint x="681" y="400" as="sourcePoint" />
            <mxPoint x="871" y="400" as="targetPoint" />
            <Array as="points">
              <mxPoint x="711" y="400" />
              <mxPoint x="611" y="410" />
              <mxPoint x="541" y="410" />
            </Array>
          </mxGeometry>
        </mxCell>
        <mxCell id="kfZU4WPmUWNrsmBG602O-11" value="&lt;font style=&quot;font-size: 8px;&quot;&gt;6. UPDATE customer_accounts_funds&lt;/font&gt;" style="edgeLabel;html=1;align=center;verticalAlign=middle;resizable=0;points=[];" vertex="1" connectable="0" parent="kfZU4WPmUWNrsmBG602O-10">
          <mxGeometry x="-0.0815" relative="1" as="geometry">
            <mxPoint x="5" y="-8" as="offset" />
          </mxGeometry>
        </mxCell>
        <mxCell id="kfZU4WPmUWNrsmBG602O-12" value="" style="edgeStyle=elbowEdgeStyle;rounded=0;orthogonalLoop=1;jettySize=auto;html=1;elbow=vertical;curved=0;" edge="1" parent="1">
          <mxGeometry relative="1" as="geometry">
            <mxPoint x="656" y="431" as="sourcePoint" />
            <mxPoint x="906" y="431" as="targetPoint" />
            <Array as="points">
              <mxPoint x="881" y="431" />
            </Array>
          </mxGeometry>
        </mxCell>
        <mxCell id="kfZU4WPmUWNrsmBG602O-13" value="&lt;font style=&quot;font-size: 8px;&quot;&gt;7. COMMIT db transaction&lt;/font&gt;" style="edgeLabel;html=1;align=center;verticalAlign=middle;resizable=0;points=[];" vertex="1" connectable="0" parent="kfZU4WPmUWNrsmBG602O-12">
          <mxGeometry x="-0.0815" relative="1" as="geometry">
            <mxPoint x="10" y="-8" as="offset" />
          </mxGeometry>
        </mxCell>
        <mxCell id="kfZU4WPmUWNrsmBG602O-15" value="&lt;font style=&quot;font-size: 8px;&quot;&gt;8. return nil error&amp;nbsp;&lt;/font&gt;" style="html=1;verticalAlign=bottom;endArrow=open;dashed=1;endSize=8;edgeStyle=elbowEdgeStyle;elbow=vertical;curved=0;rounded=0;" edge="1" parent="1" target="aM9ryv3xv72pqoxQDRHE-6">
          <mxGeometry relative="1" as="geometry">
            <mxPoint x="671" y="460" as="targetPoint" />
            <Array as="points">
              <mxPoint x="679" y="460" />
            </Array>
            <mxPoint x="906" y="460" as="sourcePoint" />
          </mxGeometry>
        </mxCell>
        <mxCell id="kfZU4WPmUWNrsmBG602O-21" value="" style="html=1;points=[];perimeter=orthogonalPerimeter;outlineConnect=0;targetShapes=umlLifeline;portConstraint=eastwest;newEdgeStyle={&quot;edgeStyle&quot;:&quot;elbowEdgeStyle&quot;,&quot;elbow&quot;:&quot;vertical&quot;,&quot;curved&quot;:0,&quot;rounded&quot;:0};" vertex="1" parent="1">
          <mxGeometry x="218" y="280" width="10" height="310" as="geometry" />
        </mxCell>
        <mxCell id="kfZU4WPmUWNrsmBG602O-23" value="" style="endArrow=none;html=1;strokeWidth=2;rounded=0;dashed=1;dashPattern=1 2;" edge="1" parent="1" target="kfZU4WPmUWNrsmBG602O-21">
          <mxGeometry width="50" height="50" relative="1" as="geometry">
            <mxPoint x="223" y="620" as="sourcePoint" />
            <mxPoint x="223" y="450" as="targetPoint" />
          </mxGeometry>
        </mxCell>
        <mxCell id="kfZU4WPmUWNrsmBG602O-25" value="&lt;font style=&quot;font-size: 8px;&quot;&gt;8.1 return error&amp;nbsp;&lt;/font&gt;" style="html=1;verticalAlign=bottom;endArrow=open;dashed=1;endSize=8;edgeStyle=elbowEdgeStyle;elbow=vertical;curved=0;rounded=0;" edge="1" parent="1" target="aM9ryv3xv72pqoxQDRHE-6">
          <mxGeometry relative="1" as="geometry">
            <mxPoint x="671" y="530" as="targetPoint" />
            <Array as="points">
              <mxPoint x="679" y="530" />
            </Array>
            <mxPoint x="906" y="530" as="sourcePoint" />
          </mxGeometry>
        </mxCell>
        <mxCell id="kfZU4WPmUWNrsmBG602O-26" value="&lt;font style=&quot;font-size: 8px;&quot;&gt;8.1.1 return HTTP_STATUS 500&lt;/font&gt;" style="html=1;verticalAlign=bottom;endArrow=open;dashed=1;endSize=8;edgeStyle=elbowEdgeStyle;elbow=vertical;curved=0;rounded=0;" edge="1" parent="1" source="aM9ryv3xv72pqoxQDRHE-6" target="aM9ryv3xv72pqoxQDRHE-2">
          <mxGeometry x="-0.0014" relative="1" as="geometry">
            <mxPoint x="391" y="520" as="targetPoint" />
            <Array as="points">
              <mxPoint x="521" y="550" />
              <mxPoint x="456" y="520" />
              <mxPoint x="391" y="480" />
            </Array>
            <mxPoint x="546" y="520" as="sourcePoint" />
            <mxPoint as="offset" />
          </mxGeometry>
        </mxCell>
        <mxCell id="kfZU4WPmUWNrsmBG602O-28" value="&lt;font style=&quot;font-size: 8px;&quot;&gt;10. show success page&lt;/font&gt;" style="html=1;verticalAlign=bottom;endArrow=open;dashed=1;endSize=8;edgeStyle=elbowEdgeStyle;elbow=vertical;curved=0;rounded=0;" edge="1" parent="1" source="aM9ryv3xv72pqoxQDRHE-2" target="kfZU4WPmUWNrsmBG602O-21">
          <mxGeometry relative="1" as="geometry">
            <mxPoint x="251" y="460" as="targetPoint" />
            <Array as="points">
              <mxPoint x="341" y="500" />
              <mxPoint x="311" y="470" />
              <mxPoint x="286" y="460" />
              <mxPoint x="221" y="420" />
            </Array>
            <mxPoint x="376" y="460" as="sourcePoint" />
          </mxGeometry>
        </mxCell>
        <mxCell id="kfZU4WPmUWNrsmBG602O-29" value="&lt;font style=&quot;font-size: 8px;&quot;&gt;8.1.2 show failed page&lt;/font&gt;" style="html=1;verticalAlign=bottom;endArrow=open;dashed=1;endSize=8;edgeStyle=elbowEdgeStyle;elbow=vertical;curved=0;rounded=0;" edge="1" parent="1">
          <mxGeometry relative="1" as="geometry">
            <mxPoint x="228" y="570" as="targetPoint" />
            <Array as="points">
              <mxPoint x="286" y="570" />
              <mxPoint x="221" y="530" />
            </Array>
            <mxPoint x="376" y="570" as="sourcePoint" />
          </mxGeometry>
        </mxCell>
        <mxCell id="kfZU4WPmUWNrsmBG602O-30" value="&lt;font style=&quot;font-size: 8px;&quot;&gt;3. validate request body&lt;/font&gt;" style="html=1;verticalAlign=bottom;endArrow=block;edgeStyle=elbowEdgeStyle;elbow=vertical;curved=0;rounded=0;" edge="1" parent="1" source="aM9ryv3xv72pqoxQDRHE-2" target="aM9ryv3xv72pqoxQDRHE-6">
          <mxGeometry relative="1" as="geometry">
            <mxPoint x="411" y="270" as="sourcePoint" />
            <Array as="points">
              <mxPoint x="476" y="270" />
              <mxPoint x="381" y="260" />
            </Array>
            <mxPoint x="546" y="270" as="targetPoint" />
          </mxGeometry>
        </mxCell>
        <mxCell id="kfZU4WPmUWNrsmBG602O-31" value="&lt;font style=&quot;font-size: 8px;&quot;&gt;3.1. return HTTP_STATUS 404 for invalidate request body&lt;/font&gt;" style="html=1;verticalAlign=bottom;endArrow=open;dashed=1;endSize=8;edgeStyle=elbowEdgeStyle;elbow=vertical;curved=0;rounded=0;" edge="1" parent="1" source="aM9ryv3xv72pqoxQDRHE-6" target="aM9ryv3xv72pqoxQDRHE-2">
          <mxGeometry relative="1" as="geometry">
            <mxPoint x="401" y="310" as="targetPoint" />
            <Array as="points">
              <mxPoint x="456" y="310" />
              <mxPoint x="391" y="270" />
            </Array>
            <mxPoint x="546" y="310" as="sourcePoint" />
          </mxGeometry>
        </mxCell>
        <mxCell id="kfZU4WPmUWNrsmBG602O-32" value="&lt;font style=&quot;font-size: 8px;&quot;&gt;3.1.1 show validation message&lt;/font&gt;" style="html=1;verticalAlign=bottom;endArrow=open;dashed=1;endSize=8;edgeStyle=elbowEdgeStyle;elbow=vertical;curved=0;rounded=0;" edge="1" parent="1" source="aM9ryv3xv72pqoxQDRHE-2">
          <mxGeometry relative="1" as="geometry">
            <mxPoint x="228" y="340" as="targetPoint" />
            <Array as="points">
              <mxPoint x="298" y="340" />
              <mxPoint x="233" y="300" />
            </Array>
            <mxPoint x="371" y="340" as="sourcePoint" />
          </mxGeometry>
        </mxCell>
      </root>
    </mxGraphModel>
  </diagram>
</mxfile>
